<svg xmlns="http://www.w3.org/2000/svg" xmlns:xlink="http://www.w3.org/1999/xlink" width="500" zoomAndPan="magnify" viewBox="0 0 375 374.999991" height="500" preserveAspectRatio="xMidYMid meet" version="1.2">
  <defs>
    <clipPath id="5d46c92361">
      <path d="M 16.59375 16.59375 L 244.683594 16.59375 L 244.683594 244.683594 L 16.59375 244.683594 Z M 16.59375 16.59375 "/>
    </clipPath>
    <clipPath id="024c542878">
      <path d="M 16.59375 16.59375 L 242 16.59375 L 242 242 L 16.59375 242 Z M 16.59375 16.59375 "/>
    </clipPath>
    <clipPath id="ff28b45b74">
      <path d="M 130.53125 130.53125 L 358.625 130.53125 L 358.625 358.625 L 130.53125 358.625 Z M 130.53125 130.53125 "/>
    </clipPath>
    <clipPath id="740c3f0dec">
      <path d="M 130.53125 130.53125 L 356 130.53125 L 356 356 L 130.53125 356 Z M 130.53125 130.53125 "/>
    </clipPath>
  </defs>
  <g id="0b0f030c4c">
    <rect x="0" width="375" y="0" height="374.999991" style="fill:none;fill-opacity:1;stroke:none;"/>
    <rect x="0" width="375" y="0" height="374.999991" style="fill:#ffffff;fill-opacity:0;stroke:none;"/>
    <g clip-rule="nonzero" clip-path="url(#5d46c92361)">
      <path style=" stroke:none;fill-rule:evenodd;fill:#005693;fill-opacity:1;" d="M 131.609375 244.375 L 21.363281 244.363281 L 16.585938 241.914062 L 26.234375 21.507812 L 241.839844 16.660156 L 244.292969 20.109375 L 244.449219 131.917969 L 131.742188 132.070312 Z M 131.609375 244.375 "/>
    </g>
    <g clip-rule="nonzero" clip-path="url(#024c542878)">
      <path style=" stroke:none;fill-rule:evenodd;fill:#92cb49;fill-opacity:1;" d="M 129.203125 241.914062 L 16.578125 241.914062 L 16.578125 16.660156 L 241.832031 16.660156 L 241.832031 129.285156 L 129.203125 129.285156 Z M 129.203125 241.914062 "/>
    </g>
    <path style=" stroke:none;fill-rule:evenodd;fill:#005693;fill-opacity:1;" d="M 110.207031 185.589844 C 110.207031 205.46875 94.09375 221.585938 74.210938 221.585938 C 54.332031 221.585938 38.21875 205.46875 38.21875 185.589844 C 38.21875 165.710938 54.332031 149.59375 74.210938 149.59375 C 94.09375 149.59375 110.207031 165.710938 110.207031 185.589844 Z M 222.835938 72.964844 C 222.835938 92.84375 206.71875 108.960938 186.839844 108.960938 C 166.960938 108.960938 150.84375 92.84375 150.84375 72.964844 C 150.84375 53.085938 166.960938 36.96875 186.839844 36.96875 C 206.71875 36.96875 222.835938 53.085938 222.835938 72.964844 Z M 110.207031 72.964844 C 110.207031 92.84375 94.09375 108.960938 74.210938 108.960938 C 54.332031 108.960938 38.21875 92.84375 38.21875 72.964844 C 38.21875 53.085938 54.332031 36.96875 74.210938 36.96875 C 94.09375 36.96875 110.207031 53.085938 110.207031 72.964844 Z M 110.207031 72.964844 "/>
    <path style=" stroke:none;fill-rule:evenodd;fill:#92cb49;fill-opacity:1;" d="M 107.574219 182.957031 C 107.574219 202.839844 91.460938 218.953125 71.582031 218.953125 C 51.699219 218.953125 35.585938 202.839844 35.585938 182.957031 C 35.585938 163.078125 51.699219 146.964844 71.582031 146.964844 C 91.460938 146.964844 107.574219 163.078125 107.574219 182.957031 Z M 220.203125 70.332031 C 220.203125 90.210938 204.085938 106.328125 184.207031 106.328125 C 164.328125 106.328125 148.210938 90.210938 148.210938 70.332031 C 148.210938 50.453125 164.328125 34.335938 184.207031 34.335938 C 204.085938 34.335938 220.203125 50.453125 220.203125 70.332031 Z M 107.574219 70.332031 C 107.574219 90.210938 91.460938 106.328125 71.582031 106.328125 C 51.699219 106.328125 35.585938 90.210938 35.585938 70.332031 C 35.585938 50.453125 51.699219 34.335938 71.582031 34.335938 C 91.460938 34.335938 107.574219 50.453125 107.574219 70.332031 Z M 107.574219 70.332031 "/>
    <path style=" stroke:none;fill-rule:evenodd;fill:#ffffff;fill-opacity:0.5;" d="M 37.132812 71.890625 C 37.132812 81.425781 40.851562 90.105469 46.925781 96.546875 C 39.949219 89.984375 35.589844 80.667969 35.589844 70.335938 C 35.589844 50.453125 51.699219 34.34375 71.582031 34.34375 C 81.914062 34.34375 91.21875 38.703125 97.792969 45.679688 C 91.339844 39.605469 82.671875 35.886719 73.125 35.886719 C 53.242188 35.886719 37.132812 52.007812 37.132812 71.890625 Z M 37.132812 184.503906 C 37.132812 194.054688 40.851562 202.730469 46.925781 209.171875 C 39.949219 202.609375 35.589844 193.292969 35.589844 182.960938 C 35.589844 163.082031 51.699219 146.96875 71.582031 146.96875 C 81.914062 146.96875 91.21875 151.328125 97.792969 158.304688 C 91.339844 152.234375 82.671875 148.511719 73.125 148.511719 C 53.242188 148.511719 37.132812 164.636719 37.132812 184.503906 Z M 149.757812 71.890625 C 149.757812 81.425781 153.480469 90.105469 159.550781 96.546875 C 152.574219 89.984375 148.214844 80.667969 148.214844 70.335938 C 148.214844 50.453125 164.328125 34.34375 184.207031 34.34375 C 194.539062 34.34375 203.84375 38.703125 210.417969 45.679688 C 203.964844 39.605469 195.300781 35.886719 185.75 35.886719 C 165.867188 35.886719 149.757812 52.007812 149.757812 71.890625 Z M 149.757812 71.890625 "/>
    <g clip-rule="nonzero" clip-path="url(#ff28b45b74)">
      <path style=" stroke:none;fill-rule:nonzero;fill:#810814;fill-opacity:1;" d="M 358.40625 358.417969 L 135.308594 358.417969 L 130.527344 355.964844 L 140.179688 135.390625 L 355.953125 130.539062 L 358.40625 133.992188 Z M 358.40625 358.417969 "/>
    </g>
    <g clip-rule="nonzero" clip-path="url(#740c3f0dec)">
      <path style=" stroke:none;fill-rule:evenodd;fill:#61a6ab;fill-opacity:1;" d="M 130.515625 130.539062 L 355.941406 130.539062 L 355.941406 355.964844 L 130.515625 355.964844 Z M 130.515625 130.539062 "/>
    </g>
    <path style=" stroke:none;fill-rule:evenodd;fill:#810814;fill-opacity:1;" d="M 336.933594 299.601562 C 336.933594 319.496094 320.804688 335.625 300.910156 335.625 C 281.015625 335.625 264.886719 319.496094 264.886719 299.601562 C 264.886719 279.707031 281.015625 263.578125 300.910156 263.578125 C 320.804688 263.578125 336.933594 279.707031 336.933594 299.601562 Z M 224.21875 299.601562 C 224.21875 319.496094 208.089844 335.625 188.195312 335.625 C 168.300781 335.625 152.171875 319.496094 152.171875 299.601562 C 152.171875 279.707031 168.300781 263.578125 188.195312 263.578125 C 208.089844 263.578125 224.21875 279.707031 224.21875 299.601562 Z M 336.933594 186.886719 C 336.933594 206.78125 320.804688 222.910156 300.910156 222.910156 C 281.015625 222.910156 264.886719 206.78125 264.886719 186.886719 C 264.886719 166.992188 281.015625 150.863281 300.910156 150.863281 C 320.804688 150.863281 336.933594 166.992188 336.933594 186.886719 Z M 224.21875 186.886719 C 224.21875 206.78125 208.089844 222.910156 188.195312 222.910156 C 168.300781 222.910156 152.171875 206.78125 152.171875 186.886719 C 152.171875 166.992188 168.300781 150.863281 188.195312 150.863281 C 208.089844 150.863281 224.21875 166.992188 224.21875 186.886719 Z M 224.21875 186.886719 "/>
    <path style=" stroke:none;fill-rule:evenodd;fill:#61a6ab;fill-opacity:1;" d="M 334.296875 296.964844 C 334.296875 316.863281 318.171875 332.988281 298.273438 332.988281 C 278.378906 332.988281 262.253906 316.863281 262.253906 296.964844 C 262.253906 277.070312 278.378906 260.945312 298.273438 260.945312 C 318.171875 260.945312 334.296875 277.070312 334.296875 296.964844 Z M 221.585938 296.964844 C 221.585938 316.863281 205.457031 332.988281 185.5625 332.988281 C 165.667969 332.988281 149.539062 316.863281 149.539062 296.964844 C 149.539062 277.070312 165.667969 260.945312 185.5625 260.945312 C 205.457031 260.945312 221.585938 277.070312 221.585938 296.964844 Z M 334.296875 184.253906 C 334.296875 204.148438 318.171875 220.277344 298.273438 220.277344 C 278.378906 220.277344 262.253906 204.148438 262.253906 184.253906 C 262.253906 164.359375 278.378906 148.230469 298.273438 148.230469 C 318.171875 148.230469 334.296875 164.359375 334.296875 184.253906 Z M 221.585938 184.253906 C 221.585938 204.148438 205.457031 220.277344 185.5625 220.277344 C 165.667969 220.277344 149.539062 204.148438 149.539062 184.253906 C 149.539062 164.359375 165.667969 148.230469 185.5625 148.230469 C 205.457031 148.230469 221.585938 164.359375 221.585938 184.253906 Z M 221.585938 184.253906 "/>
    <path style=" stroke:none;fill-rule:evenodd;fill:#ffffff;fill-opacity:0.5;" d="M 263.800781 298.511719 C 263.800781 308.070312 267.523438 316.753906 273.601562 323.199219 C 266.617188 316.632812 262.253906 307.308594 262.253906 296.96875 C 262.253906 277.074219 278.378906 260.949219 298.273438 260.949219 C 308.613281 260.949219 317.925781 265.3125 324.503906 272.292969 C 318.050781 266.21875 309.375 262.492188 299.820312 262.492188 C 279.921875 262.492188 263.800781 278.628906 263.800781 298.511719 Z M 151.085938 185.8125 C 151.085938 195.355469 154.8125 204.042969 160.886719 210.488281 C 153.902344 203.917969 149.542969 194.597656 149.542969 184.257812 C 149.542969 164.359375 165.664062 148.238281 185.5625 148.238281 C 195.902344 148.238281 205.214844 152.597656 211.792969 159.582031 C 205.335938 153.503906 196.660156 149.78125 187.105469 149.78125 C 167.210938 149.78125 151.085938 165.914062 151.085938 185.8125 Z M 151.085938 298.511719 C 151.085938 308.070312 154.8125 316.753906 160.886719 323.199219 C 153.902344 316.632812 149.542969 307.308594 149.542969 296.96875 C 149.542969 277.074219 165.664062 260.949219 185.5625 260.949219 C 195.902344 260.949219 205.214844 265.3125 211.792969 272.292969 C 205.335938 266.21875 196.660156 262.492188 187.105469 262.492188 C 167.210938 262.492188 151.085938 278.628906 151.085938 298.511719 Z M 263.800781 185.8125 C 263.800781 195.355469 267.523438 204.042969 273.601562 210.488281 C 266.617188 203.917969 262.253906 194.597656 262.253906 184.257812 C 262.253906 164.359375 278.378906 148.238281 298.273438 148.238281 C 308.613281 148.238281 317.925781 152.597656 324.503906 159.582031 C 318.050781 153.503906 309.375 149.78125 299.820312 149.78125 C 279.921875 149.78125 263.800781 165.914062 263.800781 185.8125 Z M 263.800781 185.8125 "/>
  </g>
</svg>
